<svg xmlns="http://www.w3.org/2000/svg"><symbol id="twitter" viewBox="0 0 64 64"><path fill="#eb7808" d="M57.1 0H6.9A6.9 6.9 0 0 0 0 6.9v50.2A6.9 6.9 0 0 0 6.9 64h50.2a6.9 6.9 0 0 0 6.9-6.9V6.9A6.9 6.9 0 0 0 57.1 0zm-6.9 22.7v1.2c0 12.4-9.4 26.7-26.7 26.7a27.3 27.3 0 0 1-14.4-4.2h2.3a18.7 18.7 0 0 0 11.6-4 9.4 9.4 0 0 1-8.7-6.4 10 10 0 0 0 4.2-.2 9.3 9.3 0 0 1-7.5-9.2 9.8 9.8 0 0 0 4.2 1.2 9.7 9.7 0 0 1-2.9-12.6A26.6 26.6 0 0 0 31.6 25a9.4 9.4 0 0 1 16-8.5 18.2 18.2 0 0 0 6-2.3 9.7 9.7 0 0 1-4.1 5.2 17.4 17.4 0 0 0 5.4-1.5 19.9 19.9 0 0 1-4.7 4.8z"/></symbol><symbol id="facebook" viewBox="0 0 64 64"><path fill="#eb7808" d="M64 6.9v50.2a6.9 6.9 0 0 1-6.9 6.9H45V38.7h8.6l1.3-9.7H45v-6.1c0-2.8.7-4.7 4.7-4.7h5.2V9.5a73.7 73.7 0 0 0-7.5-.4C40 9.1 35 13.6 35 21.9V29h-8.7v9.7H35V64H6.9A6.9 6.9 0 0 1 0 57.1V6.9A6.9 6.9 0 0 1 6.9 0h50.2A6.9 6.9 0 0 1 64 6.9z"/></symbol><symbol id="instagram" viewBox="0 0 64 64"><path fill="#eb7808" d="M32 15.6A16.4 16.4 0 1 0 48.4 32 16.3 16.3 0 0 0 32 15.6zm0 27.1A10.7 10.7 0 1 1 42.7 32 10.7 10.7 0 0 1 32 42.7zm20.9-27.8a3.8 3.8 0 1 1-3.8-3.8 3.8 3.8 0 0 1 3.8 3.8zm10.9 3.9c-.3-5.1-1.4-9.7-5.2-13.4S50.3.5 45.2.2 24.1-.1 18.8.2 9.1 1.6 5.4 5.4.5 13.7.2 18.8s-.3 21.1 0 26.4 1.4 9.7 5.2 13.4 8.3 4.9 13.4 5.2 21.1.3 26.4 0 9.7-1.5 13.4-5.2 4.9-8.3 5.2-13.4.3-21.1 0-26.4zM57 50.9a10.9 10.9 0 0 1-6.1 6c-4.2 1.7-14.2 1.3-18.9 1.3s-14.7.4-18.9-1.3a10.4 10.4 0 0 1-6-6C5.4 46.6 5.8 36.6 5.8 32s-.4-14.7 1.3-18.9a10.9 10.9 0 0 1 6-6.1C17.4 5.4 27.4 5.8 32 5.8S46.7 5.4 50.9 7a11.4 11.4 0 0 1 6.1 6.1c1.6 4.2 1.2 14.2 1.2 18.9s.4 14.7-1.2 18.9z"/></symbol></svg>