<svg xmlns="http://www.w3.org/2000/svg" width="64" height="64" viewBox="0 0 64 64"><path fill="#eb7808" d="M57.1 0H6.9A6.9 6.9 0 0 0 0 6.9v50.2A6.9 6.9 0 0 0 6.9 64h50.2a6.9 6.9 0 0 0 6.9-6.9V6.9A6.9 6.9 0 0 0 57.1 0zm-6.9 22.7v1.2c0 12.4-9.4 26.7-26.7 26.7a27.3 27.3 0 0 1-14.4-4.2h2.3a18.7 18.7 0 0 0 11.6-4 9.4 9.4 0 0 1-8.7-6.4 10 10 0 0 0 4.2-.2 9.3 9.3 0 0 1-7.5-9.2 9.8 9.8 0 0 0 4.2 1.2 9.7 9.7 0 0 1-2.9-12.6A26.6 26.6 0 0 0 31.6 25a9.4 9.4 0 0 1 16-8.5 18.2 18.2 0 0 0 6-2.3 9.7 9.7 0 0 1-4.1 5.2 17.4 17.4 0 0 0 5.4-1.5 19.9 19.9 0 0 1-4.7 4.8z"/></svg>